<?xml version="1.0" encoding="utf-8"?>
<!-- Generator: Adobe Illustrator 21.1.0, SVG Export Plug-In . SVG Version: 6.00 Build 0)  -->
<svg version="1.1" id="Layer_1" xmlns="http://www.w3.org/2000/svg" xmlns:xlink="http://www.w3.org/1999/xlink" x="0px" y="0px"
	 viewBox="0 0 595.3 183.8" style="enable-background:new 0 0 595.3 183.8;" xml:space="preserve">
<style type="text/css">
	.st0{fill-rule:evenodd;clip-rule:evenodd;fill:#FFFFFF;}
	.st1{fill:#C4D145;}
</style>
<g>
	<g>
		<path class="st0" d="M494.8,121.4c-40.4,1.2-150.6,2.7-251.8,7.7c-73.9,3.6-146.5,11.4-166.3,12.9c-3.2,0.2-5.6,0.2-4.4,4.3
			c1.4,4.4,3.6,4.7,8.4,4.7c19.8,0.1,86.9-6.1,160.1-7.9c102.2-2.5,218.5-0.5,251.2-1.6c5.2-0.2,10.2-2.8,12.9-10.3
			C507.5,123.8,508,121,494.8,121.4z M514.6,71.4c-2.9,3.2-5.5,6.7-8.5,9.8c-3,3.1-9.2,10.6-13.2,9c-2.7-1.1,12.3-26.9,19.4-36.2
			c2.1-2.8,2.2-4.5-0.3-6.8c-1.3-1.3-3-2.3-4.7-3.1c-2.2-1.1-3.9-0.6-5.3,1.7c-3.9,6.3-8,12.5-12.2,18.7
			c-5.8,8.2-18.3,27.2-21.4,26.2c-4.2-1.4,15.3-28.5,20.6-35.3c2.3-3,2.4-4.5-0.3-6.6c-1.1-0.9-2.4-1.7-3.8-2.3
			c-3.7-1.6-5.4-1.1-7.8,2.2c-1.7,2.3-3.4,4.5-4.9,7c-4.9,8-9,16.4-14.1,24.1c-4.5,6.8-11.3,14.9-16.3,12.6
			c-6.1-2.8,12.3-25.7,19.8-34.2c2.8-3.1,2.8-5.7,0.2-10c-2-3.3-3.2-3.7-7.7-2.6c-3.5,0.8-7.1,1.4-11,2.2c0.7-2,3.2-6.6,1.4-8
			c-6.4-5-13.5,12.3-15.1,17.8c-1.9,6.6-7.8,16.2-11.8,21.7c-3.7,5.1-13.1,16.2-15.8,15.8c-4.9-0.8,1.2-8.9,1.9-10
			c5.2-8.5,10.4-17,15.7-25.5c1.9-3.1,1.3-5.9-2.3-8.4c-4-2.7-5.5-2.3-8,1.3c-9.1,13.3-27.6,45.3-32.3,42.6
			c-2.5-1.5,1.6-7.7,2.9-9.6c5.6-8.2,11.5-16.3,17.2-24.5c0.9-1.3,2-3.2,1.6-4.3c-1.1-3.2-4.2-4.5-7.4-5.2c-2.7-0.7-4,1.3-5.3,3.2
			c-3.4,4.9-6.8,9.8-10.3,14.8c-2-5.9-5-8.2-10.9-7.6c-3.7,0.4-7.4,0.3-11.1,0.5c-3.9,0.2-7.8,0.2-11.7,0.7
			c-3.5,0.4-4.5,2.4-4.1,6.8c0.2,3,1.6,4.3,5,4.5c1.6,0.1,3.1,0,4.7,0c0.3,0.3,0.6,0.6,0.9,0.9c-2.4,3.2-4.6,6.6-7.4,9.5
			c-4.1,4.3-8.5,8.2-14.7,9.3c-3.8,0.7-6-1.3-5.6-5.1c0.3-2.5,0.8-5,1.7-7.3c6.4-15.5,16.3-28.6,28.4-40.1c3-2.8,9.1-9,12.4-7.6
			c3.9,1.6-5.3,12.8-6.5,15.5c-1.3,3.2-0.1,6.4,2.3,7.8c3,1.6,5.5,0.6,7.8-1.5c4.4-4.2,6.7-9.6,7.6-15.5c0.5-3.2-0.7-6.1-3.2-8.1
			c-2.4-1.9-5-3.5-7.6-5.1c-7.9-5.2-11.4-5.1-18.8,0.8c-11.9,9.6-21.5,21.3-29.3,34.5c-4.4,7.5-8.4,15.3-7.8,24.5
			c0,0.5-0.1,1.1-0.5,1.4c-3.2,3.4-6.3,7-9.8,10.1c-1.1,1-3.7,1.9-5.1,0.9c-2.5-1.7,1-7.3,1.6-8.3c4.5-7,8.9-14,13.4-21
			c2.2-3.4,1.3-7.1-2.6-9.6c-3.2-2-4.9-1.3-7.2,2.7c-0.2,0.3-0.5,0.6-0.8,1c-0.3-0.6-0.6-1-0.9-1.5c-4-6.4-8.7-7.2-14.3-2.1
			c-8,7.3-14,16-18.4,26c-3.6,8.1-12.9,18.5-16,17.5c-4.7-1.5,11-26.6,17.6-35.8c3.1-4.4,2.8-5.8-2-8.5c-4.2-2.3-5.8-2.2-7.7,1.1
			c-5,8.7-9.7,17.7-14.4,26.5c-4.7,8.7-13.9,17.2-15.3,16.6c-4-1.4,4.8-17.6,8.3-23.5c7.1-12.1,14.9-23.8,22.6-35.6
			c1.6-2.5,1.7-4.4-0.4-6.3c-0.7-0.7-1.4-1.3-2.1-1.9c-3.4-2.5-4.3-2.4-6.5,1.1c-5.7,9.1-11.2,18.3-16.8,27.4
			c-0.5,0.7-0.9,1.5-1.6,2.4c-0.7-1-1.1-1.7-1.5-2.4c-2.5-4.1-5.5-4.8-9.6-2.3c-1.7,1.1-3.3,2.3-4.7,3.7
			c-6.7,6.7-12.1,14.3-15.5,23.2c-2.8,7.3-11.1,17.9-22.1,18.2c-5.4,0.1-4.6-7.8-1.8-8.3c8.1-1.5,14.8-5.7,19.9-12
			c7.5-9.2,7.1-14.9,1.4-22.7c-2.7-3.7-4.8-4.3-8.8-2c-8.2,4.7-17.1,17.1-21.6,26.3c-4.3,8.9-2.9,15.2,4.5,21.6
			c4.8,4.2,9.4,4.8,14.7,1.4c4.1-2.7,7.9-5.9,11.9-8.9c1.1,1.3,2.4,3,3.7,4.6c2.9,3.6,5.7,4.1,9.6,1.5c2.2-1.5,4.3-3.3,6.4-4.9
			c5.9,8.2,10.7,8.6,17.9,1.6c1.5-1.4,2.9-3,4.4-4.5c5,9.5,9.3,10.4,17.4,3.6c2.2-1.9,4.3-3.9,6.6-6.1c0.5,7.6,8.4,9.9,12.6,6.9
			c2.5-1.8,4.8-4,7.2-6c0.7,1.6,1.2,3.1,2,4.4c2.9,5.2,7.5,6.5,12.4,3.1c2.7-1.9,5.2-4.3,7.5-6.7c2.3-2.4,4.1-5.2,6.1-7.7
			c4.4,3.7,8.5,7.4,12.9,10.8c2.8,2.2,6.2,4.3,9.9,2.1c13.1-7.7,25.9-15.8,28.2-32.6c4.5-0.7,9-1.5,13.3-2.2
			c-1.9,3.5-3.9,7.2-5.8,10.9c-2.7,5.5-1.9,10.9,1.4,15.8c3.4,5.2,7.8,5.7,12.3,1.3c2.8-2.8,5.3-5.8,8.2-9.1c0.1,0.9,0.2,1.5,0.2,2
			c0.4,4.1,1.4,8,5.6,9.9c4.2,1.9,8,0.1,11-2.7c3.7-3.4,7.4-7,10.3-11c5.8-8,11.2-16.3,16.7-24.5c3.2-4.7,5.2-5.5,11.3-4.3
			c-1,1.2-1.9,2.3-2.8,3.5c-5,6.7-10.1,13.5-11.9,22c-1.2,5.7,0.9,10.7,5.4,13.7c4.8,3.2,9.1,1.6,13.1-1.5c3-2.3,5.9-4.9,8.8-7.4
			c1.1,1.7,2,3.3,3.2,4.7c3.5,4.1,7.2,4.5,11.3,1c2.3-2,4.2-4.4,6.3-6.6c1-1.1,1.9-2.3,3.3-4c0.1,1.7,0.2,2.5,0.3,3.3
			c1.2,9.4,8.1,12.9,16,7.7c8.8-5.7,14.6-14.2,19.7-23.1C518.3,72.7,515.2,70.7,514.6,71.4z M190.7,75.1
			c-0.6,5.9-9.3,15.3-15.8,16.9C179.6,85.4,183.4,79,190.7,75.1z M204.8,103.5c-2.9-2.6,13.2-35.2,19.8-28.4
			C221.3,87.3,209.4,107.6,204.8,103.5z M270.5,99.1c-3.7-2.8,18.6-34,22-32C297.6,70.1,273.4,101.4,270.5,99.1z M84.8,116.1
			c3.3,1.8,5.9,0.7,8.4-4c6-11.1,18.9-35,19.4-35.8c0.3,2,0.7,15.2,1.6,18.8c1.2,5.3,8.8,7.8,13.4,4.3c4.7-3.6,16.9-19.3,22.5-26.1
			c-0.4,1.4-8.7,20.3-12.7,29.1c-1.1,2.5-1,4.7,0.4,6.9c1.5,2.4,3.2,5,6.4,4.9c3-0.1,3.8-2.9,5-5.1c9.4-17.5,18.6-35,28.3-52.3
			c2.3-4.1,1.8-7.3-0.3-10.7c-3.9-6.3-10.1-6.6-14.7-1.2c-11.9,14.1-34.1,42.7-37,41.4c-1.2-0.5,2.2-19.5,4.2-29
			c2.5-11.5-6.8-14.9-9.2-15.4c-2.7-0.5-3.9-0.3-5.3,2.4c-11,20.5-22.2,41-33.3,61.5C79.7,109.8,80.9,113.9,84.8,116.1z"/>
	</g>
</g>
<path class="st1" d="M281.3,31.3c-7.6-1.9-12.5-3.9-17.1,4.9c-4.7,9-3.6,14.6-0.6,15.9c5.4,2.3,28.8-4.6,31.5-10.2
	C298.2,35.6,286.8,32.7,281.3,31.3z"/>
</svg>
